<mxfile host="65bd71144e">
    <diagram id="f9g8GaqlfDGhB8XFstKF" name="第 1 页">
        <mxGraphModel dx="599" dy="498" grid="1" gridSize="10" guides="1" tooltips="1" connect="1" arrows="1" fold="1" page="1" pageScale="1" pageWidth="827" pageHeight="1169" background="#ffffff" math="0" shadow="0">
            <root>
                <mxCell id="0"/>
                <mxCell id="1" parent="0"/>
                <mxCell id="2" value="asdas" style="rounded=0;whiteSpace=wrap;html=1;dashed=1;dashPattern=1 2;fontStyle=7" vertex="1" parent="1">
                    <mxGeometry x="110" y="80" width="250" height="240" as="geometry"/>
                </mxCell>
            </root>
        </mxGraphModel>
    </diagram>
</mxfile>